<svg xmlns="http://www.w3.org/2000/svg" viewBox="0 0 760 160" role="img" aria-labelledby="title desc">
  <title id="title">KX Platform</title>
  <desc id="desc">KX Platform wordmark with geometric cube icon.</desc>
  <defs>
    <linearGradient id="markTop" x1="28" x2="124" y1="22" y2="78" gradientUnits="userSpaceOnUse">
      <stop offset="0" stop-color="#7C3AED" />
      <stop offset="0.5" stop-color="#5B21B6" />
      <stop offset="1" stop-color="#06B6D4" />
    </linearGradient>
    <linearGradient id="markLeft" x1="24" x2="82" y1="74" y2="134" gradientUnits="userSpaceOnUse">
      <stop offset="0" stop-color="#7C3AED" />
      <stop offset="1" stop-color="#2563EB" />
    </linearGradient>
    <linearGradient id="markRight" x1="80" x2="132" y1="78" y2="36" gradientUnits="userSpaceOnUse">
      <stop offset="0" stop-color="#2563EB" />
      <stop offset="1" stop-color="#06B6D4" />
    </linearGradient>
    <linearGradient id="wordAccent" x1="244" x2="572" y1="110" y2="110" gradientUnits="userSpaceOnUse">
      <stop offset="0" stop-color="#7C3AED" />
      <stop offset="0.55" stop-color="#2563EB" />
      <stop offset="1" stop-color="#06B6D4" />
    </linearGradient>
  </defs>

  <g>
    <path fill="url(#markTop)" fill-rule="evenodd" d="M80 18 132 48 80 78 28 48 80 18Zm0 20 18 10-18 11-18-11 18-10Z" />
    <path fill="url(#markLeft)" fill-rule="evenodd" d="M28 48 80 78v64l-52-30V48Zm20 35v20l14 8V91l-14-8Z" />
    <path fill="url(#markRight)" fill-rule="evenodd" d="M132 48v64l-52 30V78l52-30Zm-20 35-14 8v20l14-8V83Z" />
    <path fill="#0B1020" d="m62 48 18-10 18 10-18 11-18-11Z" opacity="0.9" />
  </g>

  <text x="168" y="69" fill="#F8FAFC" font-family="Inter, ui-sans-serif, system-ui, -apple-system, BlinkMacSystemFont, Segoe UI, sans-serif" font-size="48" font-weight="760">KX</text>
  <text x="168" y="120" fill="url(#wordAccent)" font-family="Inter, ui-sans-serif, system-ui, -apple-system, BlinkMacSystemFont, Segoe UI, sans-serif" font-size="48" font-weight="800">Platform</text>
</svg>
